M48
;GenerationSoftware,Autodesk,EAGLE,9.6.2*%
;CreationDate,2021-10-29T19:34:57Z*%
FMAT,2
ICI,OFF
METRIC,TZ,000.000
T5C0.381
T4C0.508
T3C1.016
T2C1.778
T1C3.302
%
G90
M71
T1
X13716Y26670
X13716Y6858
X44196Y26670
X44196Y6858
X74676Y26670
X74676Y6858
X105156Y26670
X105156Y6858
X13716Y46990
X13716Y27178
X44196Y46990
X44196Y27178
X74676Y46990
X74676Y27178
X105156Y46990
X105156Y27178
X13716Y47498
X74676Y67818
X105156Y67818
X105156Y87630
X13716Y67310
X74676Y87630
X44196Y67818
X44196Y87630
X13716Y67818
X13716Y87630
X105156Y47498
X105156Y67310
X74676Y47498
X74676Y67310
X44196Y47498
X44196Y67310
T2
X126238Y85598
X126238Y69850
X112776Y84582
X112776Y70866
X95758Y85598
X95758Y69850
X82296Y84582
X82296Y70866
X65278Y85598
X65278Y69850
X51816Y84582
X51816Y70866
X34798Y85598
X34798Y69850
X21336Y84582
X21336Y70866
X126238Y65278
X126238Y49530
X112776Y50546
X95758Y65278
X82296Y64262
X82296Y50546
X65278Y65278
X65278Y49530
X51816Y64262
X51816Y50546
X34798Y65278
X34798Y49530
X21336Y64262
X21336Y50546
X126238Y44958
X21336Y43942
X21336Y30226
X126238Y24638
X126238Y8890
X112776Y23622
X112776Y9906
X95758Y24638
X95758Y8890
X112776Y43942
X82296Y9906
X65278Y24638
X65278Y8890
X51816Y23622
X51816Y9906
X34798Y24638
X34798Y8890
X21336Y23622
X21336Y9906
X112776Y30226
X112776Y64262
X95758Y49530
X95758Y44958
X95758Y29210
X82296Y43942
X82296Y30226
X65278Y44958
X65278Y29210
X51816Y43942
X51816Y30226
X126238Y29210
X34798Y44958
X34798Y29210
X82296Y23622
T3
X38608Y78994
X38608Y76454
X38608Y73914
X38608Y71374
X69088Y84074
X69088Y81534
X69088Y78994
X69088Y76454
X69088Y73914
X69088Y71374
X99568Y84074
X99568Y81534
X99568Y78994
X99568Y76454
X99568Y73914
X99568Y71374
X99568Y35814
X8128Y23114
X8128Y20574
X8128Y18034
X8128Y15494
X8128Y12954
X8128Y10414
X38608Y23114
X38608Y20574
X38608Y18034
X38608Y15494
X38608Y12954
X38608Y10414
X69088Y23114
X69088Y20574
X69088Y18034
X69088Y15494
X69088Y12954
X69088Y10414
X99568Y20574
X99568Y18034
X99568Y15494
X99568Y12954
X99568Y10414
X8128Y43434
X8128Y40894
X8128Y38354
X8128Y35814
X8128Y33274
X8128Y30734
X38608Y43434
X38608Y40894
X38608Y38354
X38608Y35814
X38608Y33274
X38608Y30734
X99568Y23114
X69088Y43434
X69088Y40894
X69088Y38354
X69088Y35814
X69088Y33274
X69088Y30734
X99568Y43434
X99568Y40894
X99568Y38354
X99568Y33274
X99568Y30734
X8128Y63754
X8128Y61214
X8128Y58674
X8128Y56134
X8128Y53594
X8128Y51054
X38608Y63754
X38608Y61214
X38608Y58674
X38608Y56134
X38608Y53594
X38608Y51054
X69088Y63754
X69088Y61214
X69088Y58674
X69088Y56134
X69088Y53594
X69088Y51054
X99568Y63754
X99568Y61214
X99568Y58674
X99568Y56134
X99568Y53594
X99568Y51054
X8128Y84074
X8128Y81534
X8128Y78994
X8128Y76454
X8128Y73914
X8128Y71374
X38608Y84074
X38608Y81534
T4
X14732Y13462
X11938Y17145
X14224Y20320
X28448Y25654
X7874Y25654
X7874Y7874
X28448Y7874
X28448Y22352
X28448Y16764
X28448Y11176
X19812Y12573
X19812Y21717
X45212Y13462
X42418Y17145
X44704Y20320
X58928Y25654
X38354Y25654
X38354Y7874
X58928Y7874
X58928Y22352
X58928Y16764
X58928Y11176
X50292Y12573
X50292Y21717
X75692Y13462
X72898Y17145
X75184Y20320
X89408Y25654
X68834Y25654
X68834Y7874
X89408Y7874
X89408Y22352
X89408Y16764
X89408Y11176
X80772Y12573
X80772Y21717
X106172Y13462
X103378Y17145
X105664Y20320
X119888Y25654
X99314Y25654
X99314Y7874
X119888Y7874
X119888Y22352
X119888Y16764
X119888Y11176
X111252Y12573
X111252Y21717
X14732Y33782
X11938Y37465
X14224Y40640
X28448Y45974
X7874Y28194
X28448Y28194
X28448Y42672
X28448Y37084
X28448Y31496
X19812Y32893
X19812Y42037
X45212Y33782
X42418Y37465
X44704Y40640
X58928Y45974
X38354Y45974
X38354Y28194
X58928Y28194
X58928Y42672
X58928Y37084
X58928Y31496
X50292Y32893
X50292Y42037
X75692Y33782
X72898Y37465
X75184Y40640
X89408Y45974
X68834Y45974
X68834Y28194
X89408Y28194
X89408Y42672
X89408Y37084
X89408Y31496
X80772Y32893
X80772Y42037
X106172Y33782
X103378Y37465
X105664Y40640
X119888Y45974
X99314Y45974
X99314Y28194
X119888Y28194
X119888Y42672
X119888Y37084
X119888Y31496
X111252Y32893
X111252Y42037
X14732Y54102
X11938Y57785
X14224Y60960
X28448Y66294
X7874Y66294
X7874Y48514
X28448Y48514
X28448Y62992
X28448Y57404
X28448Y51816
X19812Y53213
X19812Y62357
X45212Y54102
X42418Y57785
X44704Y60960
X58928Y66294
X28448Y68834
X7874Y68834
X7874Y86614
X89408Y72136
X111252Y82677
X111252Y73533
X28448Y86614
X119888Y72136
X75692Y74422
X14224Y81280
X11938Y78105
X14732Y74422
X111252Y62357
X50292Y82677
X50292Y73533
X58928Y72136
X45212Y74422
X111252Y53213
X119888Y51816
X119888Y57404
X119888Y62992
X119888Y77724
X119888Y83312
X119888Y68834
X89408Y77724
X89408Y83312
X58928Y77724
X119888Y48514
X99314Y48514
X99314Y66294
X119888Y66294
X58928Y83312
X58928Y68834
X38354Y68834
X89408Y68834
X105664Y60960
X103378Y57785
X106172Y54102
X80772Y62357
X68834Y68834
X99314Y68834
X99314Y86614
X38354Y86614
X80772Y53213
X7874Y45974
X89408Y51816
X89408Y57404
X58928Y86614
X44704Y81280
X42418Y78105
X119888Y86614
X89408Y62992
X89408Y48514
X68834Y48514
X68834Y66294
X105664Y81280
X103378Y78105
X106172Y74422
X68834Y86614
X89408Y86614
X19812Y82677
X89408Y66294
X75184Y60960
X72898Y57785
X75692Y54102
X19812Y73533
X28448Y72136
X28448Y77724
X75184Y81280
X50292Y62357
X50292Y53213
X58928Y51816
X58928Y57404
X72898Y78105
X80772Y82677
X80772Y73533
X28448Y83312
X58928Y62992
X58928Y48514
X38354Y48514
X38354Y66294
T5
X114554Y42418
X114554Y22098
X114554Y11430
X84074Y22098
X114554Y62738
X114554Y52070
X53594Y83058
X53594Y72390
X23114Y62738
X23114Y52070
X84074Y11430
X53594Y42418
X53594Y31750
X23114Y42418
X23114Y31750
X114554Y31750
X84074Y62738
X84074Y52070
X84074Y83058
X84074Y72390
X53594Y62738
X53594Y22098
X53594Y11430
X23114Y22098
X23114Y83058
X23114Y72390
X23114Y11430
X53594Y52070
X84074Y42418
X84074Y31750
X114554Y83058
X114554Y72390
M30