G04 EAGLE Gerber RS-274X export*
G75*
%MOMM*%
%FSLAX34Y34*%
%LPD*%
%INSoldermask Bottom*%
%IPPOS*%
%AMOC8*
5,1,8,0,0,1.08239X$1,22.5*%
G01*
%ADD10C,3.505200*%
%ADD11C,2.082800*%
%ADD12C,2.870200*%
%ADD13C,0.762000*%


D10*
X137160Y266700D03*
D11*
X81280Y231140D03*
X81280Y205740D03*
X81280Y180340D03*
X81280Y154940D03*
X81280Y129540D03*
X81280Y104140D03*
D10*
X137160Y68580D03*
D12*
X213360Y99060D03*
X213360Y236220D03*
X347980Y88900D03*
X347980Y246380D03*
D13*
X231140Y220980D03*
X231140Y114300D03*
D10*
X441960Y266700D03*
D11*
X386080Y231140D03*
X386080Y205740D03*
X386080Y180340D03*
X386080Y154940D03*
X386080Y129540D03*
X386080Y104140D03*
D10*
X441960Y68580D03*
D12*
X518160Y99060D03*
X518160Y236220D03*
X652780Y88900D03*
X652780Y246380D03*
D13*
X535940Y220980D03*
X535940Y114300D03*
D10*
X746760Y266700D03*
D11*
X690880Y231140D03*
X690880Y205740D03*
X690880Y180340D03*
X690880Y154940D03*
X690880Y129540D03*
X690880Y104140D03*
D10*
X746760Y68580D03*
D12*
X822960Y99060D03*
X822960Y236220D03*
X957580Y88900D03*
X957580Y246380D03*
D13*
X840740Y220980D03*
X840740Y114300D03*
D10*
X1051560Y266700D03*
D11*
X995680Y231140D03*
X995680Y205740D03*
X995680Y180340D03*
X995680Y154940D03*
X995680Y129540D03*
X995680Y104140D03*
D10*
X1051560Y68580D03*
D12*
X1127760Y99060D03*
X1127760Y236220D03*
X1262380Y88900D03*
X1262380Y246380D03*
D13*
X1145540Y220980D03*
X1145540Y114300D03*
D10*
X137160Y469900D03*
D11*
X81280Y434340D03*
X81280Y408940D03*
X81280Y383540D03*
X81280Y358140D03*
X81280Y332740D03*
X81280Y307340D03*
D10*
X137160Y271780D03*
D12*
X213360Y302260D03*
X213360Y439420D03*
X347980Y292100D03*
X347980Y449580D03*
D13*
X231140Y424180D03*
X231140Y317500D03*
D10*
X441960Y469900D03*
D11*
X386080Y434340D03*
X386080Y408940D03*
X386080Y383540D03*
X386080Y358140D03*
X386080Y332740D03*
X386080Y307340D03*
D10*
X441960Y271780D03*
D12*
X518160Y302260D03*
X518160Y439420D03*
X652780Y292100D03*
X652780Y449580D03*
D13*
X535940Y424180D03*
X535940Y317500D03*
D10*
X746760Y469900D03*
D11*
X690880Y434340D03*
X690880Y408940D03*
X690880Y383540D03*
X690880Y358140D03*
X690880Y332740D03*
X690880Y307340D03*
D10*
X746760Y271780D03*
D12*
X822960Y302260D03*
X822960Y439420D03*
X957580Y292100D03*
X957580Y449580D03*
D13*
X840740Y424180D03*
X840740Y317500D03*
D10*
X1051560Y469900D03*
D11*
X995680Y434340D03*
X995680Y408940D03*
X995680Y383540D03*
X995680Y358140D03*
X995680Y332740D03*
X995680Y307340D03*
D10*
X1051560Y271780D03*
D12*
X1127760Y302260D03*
X1127760Y439420D03*
X1262380Y292100D03*
X1262380Y449580D03*
D13*
X1145540Y424180D03*
X1145540Y317500D03*
D10*
X137160Y673100D03*
D11*
X81280Y637540D03*
X81280Y612140D03*
X81280Y586740D03*
X81280Y561340D03*
X81280Y535940D03*
X81280Y510540D03*
D10*
X137160Y474980D03*
D12*
X213360Y505460D03*
X213360Y642620D03*
X347980Y495300D03*
X347980Y652780D03*
D13*
X231140Y627380D03*
X231140Y520700D03*
D10*
X441960Y673100D03*
D11*
X386080Y637540D03*
X386080Y612140D03*
X386080Y586740D03*
X386080Y561340D03*
X386080Y535940D03*
X386080Y510540D03*
D10*
X441960Y474980D03*
D12*
X518160Y505460D03*
X518160Y642620D03*
X652780Y495300D03*
X652780Y652780D03*
D13*
X535940Y627380D03*
X535940Y520700D03*
D10*
X746760Y673100D03*
D11*
X690880Y637540D03*
X690880Y612140D03*
X690880Y586740D03*
X690880Y561340D03*
X690880Y535940D03*
X690880Y510540D03*
D10*
X746760Y474980D03*
D12*
X822960Y505460D03*
X822960Y642620D03*
X957580Y495300D03*
X957580Y652780D03*
D13*
X840740Y627380D03*
X840740Y520700D03*
D10*
X1051560Y673100D03*
D11*
X995680Y637540D03*
X995680Y612140D03*
X995680Y586740D03*
X995680Y561340D03*
X995680Y535940D03*
X995680Y510540D03*
D10*
X1051560Y474980D03*
D12*
X1127760Y505460D03*
X1127760Y642620D03*
X1262380Y495300D03*
X1262380Y652780D03*
D13*
X1145540Y627380D03*
X1145540Y520700D03*
D10*
X137160Y876300D03*
D11*
X81280Y840740D03*
X81280Y815340D03*
X81280Y789940D03*
X81280Y764540D03*
X81280Y739140D03*
X81280Y713740D03*
D10*
X137160Y678180D03*
D12*
X213360Y708660D03*
X213360Y845820D03*
X347980Y698500D03*
X347980Y855980D03*
D13*
X231140Y830580D03*
X231140Y723900D03*
D10*
X441960Y876300D03*
D11*
X386080Y840740D03*
X386080Y815340D03*
X386080Y789940D03*
X386080Y764540D03*
X386080Y739140D03*
X386080Y713740D03*
D10*
X441960Y678180D03*
D12*
X518160Y708660D03*
X518160Y845820D03*
X652780Y698500D03*
X652780Y855980D03*
D13*
X535940Y830580D03*
X535940Y723900D03*
D10*
X746760Y876300D03*
D11*
X690880Y840740D03*
X690880Y815340D03*
X690880Y789940D03*
X690880Y764540D03*
X690880Y739140D03*
X690880Y713740D03*
D10*
X746760Y678180D03*
D12*
X822960Y708660D03*
X822960Y845820D03*
X957580Y698500D03*
X957580Y855980D03*
D13*
X840740Y830580D03*
X840740Y723900D03*
D10*
X1051560Y876300D03*
D11*
X995680Y840740D03*
X995680Y815340D03*
X995680Y789940D03*
X995680Y764540D03*
X995680Y739140D03*
X995680Y713740D03*
D10*
X1051560Y678180D03*
D12*
X1127760Y708660D03*
X1127760Y845820D03*
X1262380Y698500D03*
X1262380Y855980D03*
D13*
X1145540Y830580D03*
X1145540Y723900D03*
M02*
