G04 EAGLE Gerber RS-274X export*
G75*
%MOMM*%
%FSLAX34Y34*%
%LPD*%
%INSoldermask Top*%
%IPPOS*%
%AMOC8*
5,1,8,0,0,1.08239X$1,22.5*%
G01*
%ADD10C,3.505200*%
%ADD11C,1.203200*%
%ADD12R,1.303200X1.203200*%
%ADD13R,2.413000X0.812800*%
%ADD14C,2.082800*%
%ADD15R,1.203200X1.303200*%
%ADD16C,2.870200*%
%ADD17C,1.270000*%
%ADD18C,1.703200*%


D10*
X68580Y198120D03*
D11*
X254000Y167640D03*
X38100Y12700D03*
D12*
X118500Y134620D03*
X135500Y134620D03*
D13*
X125222Y80010D03*
X125222Y92710D03*
X125222Y105410D03*
X125222Y118110D03*
X72898Y118110D03*
X72898Y105410D03*
X72898Y92710D03*
X72898Y80010D03*
D14*
X12700Y162560D03*
X12700Y137160D03*
X12700Y111760D03*
X12700Y86360D03*
X12700Y60960D03*
X12700Y35560D03*
D10*
X68580Y0D03*
D15*
X99060Y133740D03*
X99060Y150740D03*
X152400Y74540D03*
X152400Y57540D03*
X152400Y123580D03*
X152400Y140580D03*
X152400Y107560D03*
X152400Y90560D03*
D16*
X144780Y30480D03*
X144780Y167640D03*
X279400Y20320D03*
X279400Y177800D03*
D10*
X373380Y198120D03*
D11*
X558800Y167640D03*
X342900Y12700D03*
D12*
X423300Y134620D03*
X440300Y134620D03*
D13*
X430022Y80010D03*
X430022Y92710D03*
X430022Y105410D03*
X430022Y118110D03*
X377698Y118110D03*
X377698Y105410D03*
X377698Y92710D03*
X377698Y80010D03*
D14*
X317500Y162560D03*
X317500Y137160D03*
X317500Y111760D03*
X317500Y86360D03*
X317500Y60960D03*
X317500Y35560D03*
D10*
X373380Y0D03*
D15*
X403860Y133740D03*
X403860Y150740D03*
X457200Y74540D03*
X457200Y57540D03*
X457200Y123580D03*
X457200Y140580D03*
X457200Y107560D03*
X457200Y90560D03*
D16*
X449580Y30480D03*
X449580Y167640D03*
X584200Y20320D03*
X584200Y177800D03*
D10*
X678180Y198120D03*
D11*
X863600Y167640D03*
X647700Y12700D03*
D12*
X728100Y134620D03*
X745100Y134620D03*
D13*
X734822Y80010D03*
X734822Y92710D03*
X734822Y105410D03*
X734822Y118110D03*
X682498Y118110D03*
X682498Y105410D03*
X682498Y92710D03*
X682498Y80010D03*
D14*
X622300Y162560D03*
X622300Y137160D03*
X622300Y111760D03*
X622300Y86360D03*
X622300Y60960D03*
X622300Y35560D03*
D10*
X678180Y0D03*
D15*
X708660Y133740D03*
X708660Y150740D03*
X762000Y74540D03*
X762000Y57540D03*
X762000Y123580D03*
X762000Y140580D03*
X762000Y107560D03*
X762000Y90560D03*
D16*
X754380Y30480D03*
X754380Y167640D03*
X889000Y20320D03*
X889000Y177800D03*
D10*
X982980Y198120D03*
D11*
X1168400Y167640D03*
X952500Y12700D03*
D12*
X1032900Y134620D03*
X1049900Y134620D03*
D13*
X1039622Y80010D03*
X1039622Y92710D03*
X1039622Y105410D03*
X1039622Y118110D03*
X987298Y118110D03*
X987298Y105410D03*
X987298Y92710D03*
X987298Y80010D03*
D14*
X927100Y162560D03*
X927100Y137160D03*
X927100Y111760D03*
X927100Y86360D03*
X927100Y60960D03*
X927100Y35560D03*
D10*
X982980Y0D03*
D15*
X1013460Y133740D03*
X1013460Y150740D03*
X1066800Y74540D03*
X1066800Y57540D03*
X1066800Y123580D03*
X1066800Y140580D03*
X1066800Y107560D03*
X1066800Y90560D03*
D16*
X1059180Y30480D03*
X1059180Y167640D03*
X1193800Y20320D03*
X1193800Y177800D03*
D10*
X68580Y426720D03*
D11*
X254000Y396240D03*
X38100Y241300D03*
D12*
X118500Y363220D03*
X135500Y363220D03*
D13*
X125222Y308610D03*
X125222Y321310D03*
X125222Y334010D03*
X125222Y346710D03*
X72898Y346710D03*
X72898Y334010D03*
X72898Y321310D03*
X72898Y308610D03*
D14*
X12700Y391160D03*
X12700Y365760D03*
X12700Y340360D03*
X12700Y314960D03*
X12700Y289560D03*
X12700Y264160D03*
D10*
X68580Y228600D03*
D15*
X99060Y362340D03*
X99060Y379340D03*
X152400Y303140D03*
X152400Y286140D03*
X152400Y352180D03*
X152400Y369180D03*
X152400Y336160D03*
X152400Y319160D03*
D16*
X144780Y259080D03*
X144780Y396240D03*
X279400Y248920D03*
X279400Y406400D03*
D10*
X373380Y426720D03*
D11*
X558800Y396240D03*
X342900Y241300D03*
D12*
X423300Y363220D03*
X440300Y363220D03*
D13*
X430022Y308610D03*
X430022Y321310D03*
X430022Y334010D03*
X430022Y346710D03*
X377698Y346710D03*
X377698Y334010D03*
X377698Y321310D03*
X377698Y308610D03*
D14*
X317500Y391160D03*
X317500Y365760D03*
X317500Y340360D03*
X317500Y314960D03*
X317500Y289560D03*
X317500Y264160D03*
D10*
X373380Y228600D03*
D15*
X403860Y362340D03*
X403860Y379340D03*
X457200Y303140D03*
X457200Y286140D03*
X457200Y352180D03*
X457200Y369180D03*
X457200Y336160D03*
X457200Y319160D03*
D16*
X449580Y259080D03*
X449580Y396240D03*
X584200Y248920D03*
X584200Y406400D03*
D10*
X678180Y426720D03*
D11*
X863600Y396240D03*
X647700Y241300D03*
D12*
X728100Y363220D03*
X745100Y363220D03*
D13*
X734822Y308610D03*
X734822Y321310D03*
X734822Y334010D03*
X734822Y346710D03*
X682498Y346710D03*
X682498Y334010D03*
X682498Y321310D03*
X682498Y308610D03*
D14*
X622300Y391160D03*
X622300Y365760D03*
X622300Y340360D03*
X622300Y314960D03*
X622300Y289560D03*
X622300Y264160D03*
D10*
X678180Y228600D03*
D15*
X708660Y362340D03*
X708660Y379340D03*
X762000Y303140D03*
X762000Y286140D03*
X762000Y352180D03*
X762000Y369180D03*
X762000Y336160D03*
X762000Y319160D03*
D16*
X754380Y259080D03*
X754380Y396240D03*
X889000Y248920D03*
X889000Y406400D03*
D10*
X982980Y426720D03*
D11*
X1168400Y396240D03*
X952500Y241300D03*
D12*
X1032900Y363220D03*
X1049900Y363220D03*
D13*
X1039622Y308610D03*
X1039622Y321310D03*
X1039622Y334010D03*
X1039622Y346710D03*
X987298Y346710D03*
X987298Y334010D03*
X987298Y321310D03*
X987298Y308610D03*
D14*
X927100Y391160D03*
X927100Y365760D03*
X927100Y340360D03*
X927100Y314960D03*
X927100Y289560D03*
X927100Y264160D03*
D10*
X982980Y228600D03*
D15*
X1013460Y362340D03*
X1013460Y379340D03*
X1066800Y303140D03*
X1066800Y286140D03*
X1066800Y352180D03*
X1066800Y369180D03*
X1066800Y336160D03*
X1066800Y319160D03*
D16*
X1059180Y259080D03*
X1059180Y396240D03*
X1193800Y248920D03*
X1193800Y406400D03*
D10*
X68580Y655320D03*
D11*
X254000Y624840D03*
X38100Y469900D03*
D12*
X118500Y591820D03*
X135500Y591820D03*
D13*
X125222Y537210D03*
X125222Y549910D03*
X125222Y562610D03*
X125222Y575310D03*
X72898Y575310D03*
X72898Y562610D03*
X72898Y549910D03*
X72898Y537210D03*
D14*
X12700Y619760D03*
X12700Y594360D03*
X12700Y568960D03*
X12700Y543560D03*
X12700Y518160D03*
X12700Y492760D03*
D10*
X68580Y457200D03*
D15*
X99060Y590940D03*
X99060Y607940D03*
X152400Y531740D03*
X152400Y514740D03*
X152400Y580780D03*
X152400Y597780D03*
X152400Y564760D03*
X152400Y547760D03*
D16*
X144780Y487680D03*
X144780Y624840D03*
X279400Y477520D03*
X279400Y635000D03*
D10*
X373380Y655320D03*
D11*
X558800Y624840D03*
X342900Y469900D03*
D12*
X423300Y591820D03*
X440300Y591820D03*
D13*
X430022Y537210D03*
X430022Y549910D03*
X430022Y562610D03*
X430022Y575310D03*
X377698Y575310D03*
X377698Y562610D03*
X377698Y549910D03*
X377698Y537210D03*
D14*
X317500Y619760D03*
X317500Y594360D03*
X317500Y568960D03*
X317500Y543560D03*
X317500Y518160D03*
X317500Y492760D03*
D10*
X373380Y457200D03*
D15*
X403860Y590940D03*
X403860Y607940D03*
X457200Y531740D03*
X457200Y514740D03*
X457200Y580780D03*
X457200Y597780D03*
X457200Y564760D03*
X457200Y547760D03*
D16*
X449580Y487680D03*
X449580Y624840D03*
X584200Y477520D03*
X584200Y635000D03*
D10*
X678180Y655320D03*
D11*
X863600Y624840D03*
X647700Y469900D03*
D12*
X728100Y591820D03*
X745100Y591820D03*
D13*
X734822Y537210D03*
X734822Y549910D03*
X734822Y562610D03*
X734822Y575310D03*
X682498Y575310D03*
X682498Y562610D03*
X682498Y549910D03*
X682498Y537210D03*
D14*
X622300Y619760D03*
X622300Y594360D03*
X622300Y568960D03*
X622300Y543560D03*
X622300Y518160D03*
X622300Y492760D03*
D10*
X678180Y457200D03*
D15*
X708660Y590940D03*
X708660Y607940D03*
X762000Y531740D03*
X762000Y514740D03*
X762000Y580780D03*
X762000Y597780D03*
X762000Y564760D03*
X762000Y547760D03*
D16*
X754380Y487680D03*
X754380Y624840D03*
X889000Y477520D03*
X889000Y635000D03*
D10*
X982980Y655320D03*
D11*
X1168400Y624840D03*
X952500Y469900D03*
D12*
X1032900Y591820D03*
X1049900Y591820D03*
D13*
X1039622Y537210D03*
X1039622Y549910D03*
X1039622Y562610D03*
X1039622Y575310D03*
X987298Y575310D03*
X987298Y562610D03*
X987298Y549910D03*
X987298Y537210D03*
D14*
X927100Y619760D03*
X927100Y594360D03*
X927100Y568960D03*
X927100Y543560D03*
X927100Y518160D03*
X927100Y492760D03*
D10*
X982980Y457200D03*
D15*
X1013460Y590940D03*
X1013460Y607940D03*
X1066800Y531740D03*
X1066800Y514740D03*
X1066800Y580780D03*
X1066800Y597780D03*
X1066800Y564760D03*
X1066800Y547760D03*
D16*
X1059180Y487680D03*
X1059180Y624840D03*
X1193800Y477520D03*
X1193800Y635000D03*
D10*
X68580Y883920D03*
D11*
X254000Y853440D03*
X38100Y698500D03*
D12*
X118500Y820420D03*
X135500Y820420D03*
D13*
X125222Y765810D03*
X125222Y778510D03*
X125222Y791210D03*
X125222Y803910D03*
X72898Y803910D03*
X72898Y791210D03*
X72898Y778510D03*
X72898Y765810D03*
D14*
X12700Y848360D03*
X12700Y822960D03*
X12700Y797560D03*
X12700Y772160D03*
X12700Y746760D03*
X12700Y721360D03*
D10*
X68580Y685800D03*
D15*
X99060Y819540D03*
X99060Y836540D03*
X152400Y760340D03*
X152400Y743340D03*
X152400Y809380D03*
X152400Y826380D03*
X152400Y793360D03*
X152400Y776360D03*
D16*
X144780Y716280D03*
X144780Y853440D03*
X279400Y706120D03*
X279400Y863600D03*
D10*
X373380Y883920D03*
D11*
X558800Y853440D03*
X342900Y698500D03*
D12*
X423300Y820420D03*
X440300Y820420D03*
D13*
X430022Y765810D03*
X430022Y778510D03*
X430022Y791210D03*
X430022Y803910D03*
X377698Y803910D03*
X377698Y791210D03*
X377698Y778510D03*
X377698Y765810D03*
D14*
X317500Y848360D03*
X317500Y822960D03*
X317500Y797560D03*
X317500Y772160D03*
X317500Y746760D03*
X317500Y721360D03*
D10*
X373380Y685800D03*
D15*
X403860Y819540D03*
X403860Y836540D03*
X457200Y760340D03*
X457200Y743340D03*
X457200Y809380D03*
X457200Y826380D03*
X457200Y793360D03*
X457200Y776360D03*
D16*
X449580Y716280D03*
X449580Y853440D03*
X584200Y706120D03*
X584200Y863600D03*
D10*
X678180Y883920D03*
D11*
X863600Y853440D03*
X647700Y698500D03*
D12*
X728100Y820420D03*
X745100Y820420D03*
D13*
X734822Y765810D03*
X734822Y778510D03*
X734822Y791210D03*
X734822Y803910D03*
X682498Y803910D03*
X682498Y791210D03*
X682498Y778510D03*
X682498Y765810D03*
D14*
X622300Y848360D03*
X622300Y822960D03*
X622300Y797560D03*
X622300Y772160D03*
X622300Y746760D03*
X622300Y721360D03*
D10*
X678180Y685800D03*
D15*
X708660Y819540D03*
X708660Y836540D03*
X762000Y760340D03*
X762000Y743340D03*
X762000Y809380D03*
X762000Y826380D03*
X762000Y793360D03*
X762000Y776360D03*
D16*
X754380Y716280D03*
X754380Y853440D03*
X889000Y706120D03*
X889000Y863600D03*
D10*
X982980Y883920D03*
D11*
X1168400Y853440D03*
X952500Y698500D03*
D12*
X1032900Y820420D03*
X1049900Y820420D03*
D13*
X1039622Y765810D03*
X1039622Y778510D03*
X1039622Y791210D03*
X1039622Y803910D03*
X987298Y803910D03*
X987298Y791210D03*
X987298Y778510D03*
X987298Y765810D03*
D14*
X927100Y848360D03*
X927100Y822960D03*
X927100Y797560D03*
X927100Y772160D03*
X927100Y746760D03*
X927100Y721360D03*
D10*
X982980Y685800D03*
D15*
X1013460Y819540D03*
X1013460Y836540D03*
X1066800Y760340D03*
X1066800Y743340D03*
X1066800Y809380D03*
X1066800Y826380D03*
X1066800Y793360D03*
X1066800Y776360D03*
D16*
X1059180Y716280D03*
X1059180Y853440D03*
X1193800Y706120D03*
X1193800Y863600D03*
D10*
X68580Y1112520D03*
D11*
X254000Y1082040D03*
X38100Y927100D03*
D12*
X118500Y1049020D03*
X135500Y1049020D03*
D13*
X125222Y994410D03*
X125222Y1007110D03*
X125222Y1019810D03*
X125222Y1032510D03*
X72898Y1032510D03*
X72898Y1019810D03*
X72898Y1007110D03*
X72898Y994410D03*
D14*
X12700Y1076960D03*
X12700Y1051560D03*
X12700Y1026160D03*
X12700Y1000760D03*
X12700Y975360D03*
X12700Y949960D03*
D10*
X68580Y914400D03*
D15*
X99060Y1048140D03*
X99060Y1065140D03*
X152400Y988940D03*
X152400Y971940D03*
X152400Y1037980D03*
X152400Y1054980D03*
X152400Y1021960D03*
X152400Y1004960D03*
D16*
X144780Y944880D03*
X144780Y1082040D03*
X279400Y934720D03*
X279400Y1092200D03*
D10*
X373380Y1112520D03*
D11*
X558800Y1082040D03*
X342900Y927100D03*
D12*
X423300Y1049020D03*
X440300Y1049020D03*
D13*
X430022Y994410D03*
X430022Y1007110D03*
X430022Y1019810D03*
X430022Y1032510D03*
X377698Y1032510D03*
X377698Y1019810D03*
X377698Y1007110D03*
X377698Y994410D03*
D14*
X317500Y1076960D03*
X317500Y1051560D03*
X317500Y1026160D03*
X317500Y1000760D03*
X317500Y975360D03*
X317500Y949960D03*
D10*
X373380Y914400D03*
D15*
X403860Y1048140D03*
X403860Y1065140D03*
X457200Y988940D03*
X457200Y971940D03*
X457200Y1037980D03*
X457200Y1054980D03*
X457200Y1021960D03*
X457200Y1004960D03*
D16*
X449580Y944880D03*
X449580Y1082040D03*
X584200Y934720D03*
X584200Y1092200D03*
D10*
X678180Y1112520D03*
D11*
X863600Y1082040D03*
X647700Y927100D03*
D12*
X728100Y1049020D03*
X745100Y1049020D03*
D13*
X734822Y994410D03*
X734822Y1007110D03*
X734822Y1019810D03*
X734822Y1032510D03*
X682498Y1032510D03*
X682498Y1019810D03*
X682498Y1007110D03*
X682498Y994410D03*
D14*
X622300Y1076960D03*
X622300Y1051560D03*
X622300Y1026160D03*
X622300Y1000760D03*
X622300Y975360D03*
X622300Y949960D03*
D10*
X678180Y914400D03*
D15*
X708660Y1048140D03*
X708660Y1065140D03*
X762000Y988940D03*
X762000Y971940D03*
X762000Y1037980D03*
X762000Y1054980D03*
X762000Y1021960D03*
X762000Y1004960D03*
D16*
X754380Y944880D03*
X754380Y1082040D03*
X889000Y934720D03*
X889000Y1092200D03*
D10*
X982980Y1112520D03*
D11*
X1168400Y1082040D03*
X952500Y927100D03*
D12*
X1032900Y1049020D03*
X1049900Y1049020D03*
D13*
X1039622Y994410D03*
X1039622Y1007110D03*
X1039622Y1019810D03*
X1039622Y1032510D03*
X987298Y1032510D03*
X987298Y1019810D03*
X987298Y1007110D03*
X987298Y994410D03*
D14*
X927100Y1076960D03*
X927100Y1051560D03*
X927100Y1026160D03*
X927100Y1000760D03*
X927100Y975360D03*
X927100Y949960D03*
D10*
X982980Y914400D03*
D15*
X1013460Y1048140D03*
X1013460Y1065140D03*
X1066800Y988940D03*
X1066800Y971940D03*
X1066800Y1037980D03*
X1066800Y1054980D03*
X1066800Y1021960D03*
X1066800Y1004960D03*
D16*
X1059180Y944880D03*
X1059180Y1082040D03*
X1193800Y934720D03*
X1193800Y1092200D03*
D10*
X68580Y1341120D03*
D11*
X254000Y1310640D03*
X38100Y1155700D03*
D12*
X118500Y1277620D03*
X135500Y1277620D03*
D13*
X125222Y1223010D03*
X125222Y1235710D03*
X125222Y1248410D03*
X125222Y1261110D03*
X72898Y1261110D03*
X72898Y1248410D03*
X72898Y1235710D03*
X72898Y1223010D03*
D14*
X12700Y1305560D03*
X12700Y1280160D03*
X12700Y1254760D03*
X12700Y1229360D03*
X12700Y1203960D03*
X12700Y1178560D03*
D10*
X68580Y1143000D03*
D15*
X99060Y1276740D03*
X99060Y1293740D03*
X152400Y1217540D03*
X152400Y1200540D03*
X152400Y1266580D03*
X152400Y1283580D03*
X152400Y1250560D03*
X152400Y1233560D03*
D16*
X144780Y1173480D03*
X144780Y1310640D03*
X279400Y1163320D03*
X279400Y1320800D03*
D10*
X373380Y1341120D03*
D11*
X558800Y1310640D03*
X342900Y1155700D03*
D12*
X423300Y1277620D03*
X440300Y1277620D03*
D13*
X430022Y1223010D03*
X430022Y1235710D03*
X430022Y1248410D03*
X430022Y1261110D03*
X377698Y1261110D03*
X377698Y1248410D03*
X377698Y1235710D03*
X377698Y1223010D03*
D14*
X317500Y1305560D03*
X317500Y1280160D03*
X317500Y1254760D03*
X317500Y1229360D03*
X317500Y1203960D03*
X317500Y1178560D03*
D10*
X373380Y1143000D03*
D15*
X403860Y1276740D03*
X403860Y1293740D03*
X457200Y1217540D03*
X457200Y1200540D03*
X457200Y1266580D03*
X457200Y1283580D03*
X457200Y1250560D03*
X457200Y1233560D03*
D16*
X449580Y1173480D03*
X449580Y1310640D03*
X584200Y1163320D03*
X584200Y1320800D03*
D10*
X678180Y1341120D03*
D11*
X863600Y1310640D03*
X647700Y1155700D03*
D12*
X728100Y1277620D03*
X745100Y1277620D03*
D13*
X734822Y1223010D03*
X734822Y1235710D03*
X734822Y1248410D03*
X734822Y1261110D03*
X682498Y1261110D03*
X682498Y1248410D03*
X682498Y1235710D03*
X682498Y1223010D03*
D14*
X622300Y1305560D03*
X622300Y1280160D03*
X622300Y1254760D03*
X622300Y1229360D03*
X622300Y1203960D03*
X622300Y1178560D03*
D10*
X678180Y1143000D03*
D15*
X708660Y1276740D03*
X708660Y1293740D03*
X762000Y1217540D03*
X762000Y1200540D03*
X762000Y1266580D03*
X762000Y1283580D03*
X762000Y1250560D03*
X762000Y1233560D03*
D16*
X754380Y1173480D03*
X754380Y1310640D03*
X889000Y1163320D03*
X889000Y1320800D03*
D10*
X982980Y1341120D03*
D11*
X1168400Y1310640D03*
X952500Y1155700D03*
D12*
X1032900Y1277620D03*
X1049900Y1277620D03*
D13*
X1039622Y1223010D03*
X1039622Y1235710D03*
X1039622Y1248410D03*
X1039622Y1261110D03*
X987298Y1261110D03*
X987298Y1248410D03*
X987298Y1235710D03*
X987298Y1223010D03*
D14*
X927100Y1305560D03*
X927100Y1280160D03*
X927100Y1254760D03*
X927100Y1229360D03*
X927100Y1203960D03*
X927100Y1178560D03*
D10*
X982980Y1143000D03*
D15*
X1013460Y1276740D03*
X1013460Y1293740D03*
X1066800Y1217540D03*
X1066800Y1200540D03*
X1066800Y1266580D03*
X1066800Y1283580D03*
X1066800Y1250560D03*
X1066800Y1233560D03*
D16*
X1059180Y1173480D03*
X1059180Y1310640D03*
X1193800Y1163320D03*
X1193800Y1320800D03*
D10*
X68580Y1569720D03*
D11*
X254000Y1539240D03*
X38100Y1384300D03*
D12*
X118500Y1506220D03*
X135500Y1506220D03*
D13*
X125222Y1451610D03*
X125222Y1464310D03*
X125222Y1477010D03*
X125222Y1489710D03*
X72898Y1489710D03*
X72898Y1477010D03*
X72898Y1464310D03*
X72898Y1451610D03*
D14*
X12700Y1534160D03*
X12700Y1508760D03*
X12700Y1483360D03*
X12700Y1457960D03*
X12700Y1432560D03*
X12700Y1407160D03*
D10*
X68580Y1371600D03*
D15*
X99060Y1505340D03*
X99060Y1522340D03*
X152400Y1446140D03*
X152400Y1429140D03*
X152400Y1495180D03*
X152400Y1512180D03*
X152400Y1479160D03*
X152400Y1462160D03*
D16*
X144780Y1402080D03*
X144780Y1539240D03*
X279400Y1391920D03*
X279400Y1549400D03*
D10*
X373380Y1569720D03*
D11*
X558800Y1539240D03*
X342900Y1384300D03*
D12*
X423300Y1506220D03*
X440300Y1506220D03*
D13*
X430022Y1451610D03*
X430022Y1464310D03*
X430022Y1477010D03*
X430022Y1489710D03*
X377698Y1489710D03*
X377698Y1477010D03*
X377698Y1464310D03*
X377698Y1451610D03*
D14*
X317500Y1534160D03*
X317500Y1508760D03*
X317500Y1483360D03*
X317500Y1457960D03*
X317500Y1432560D03*
X317500Y1407160D03*
D10*
X373380Y1371600D03*
D15*
X403860Y1505340D03*
X403860Y1522340D03*
X457200Y1446140D03*
X457200Y1429140D03*
X457200Y1495180D03*
X457200Y1512180D03*
X457200Y1479160D03*
X457200Y1462160D03*
D16*
X449580Y1402080D03*
X449580Y1539240D03*
X584200Y1391920D03*
X584200Y1549400D03*
D10*
X678180Y1569720D03*
D11*
X863600Y1539240D03*
X647700Y1384300D03*
D12*
X728100Y1506220D03*
X745100Y1506220D03*
D13*
X734822Y1451610D03*
X734822Y1464310D03*
X734822Y1477010D03*
X734822Y1489710D03*
X682498Y1489710D03*
X682498Y1477010D03*
X682498Y1464310D03*
X682498Y1451610D03*
D14*
X622300Y1534160D03*
X622300Y1508760D03*
X622300Y1483360D03*
X622300Y1457960D03*
X622300Y1432560D03*
X622300Y1407160D03*
D10*
X678180Y1371600D03*
D15*
X708660Y1505340D03*
X708660Y1522340D03*
X762000Y1446140D03*
X762000Y1429140D03*
X762000Y1495180D03*
X762000Y1512180D03*
X762000Y1479160D03*
X762000Y1462160D03*
D16*
X754380Y1402080D03*
X754380Y1539240D03*
X889000Y1391920D03*
X889000Y1549400D03*
D10*
X982980Y1569720D03*
D11*
X1168400Y1539240D03*
X952500Y1384300D03*
D12*
X1032900Y1506220D03*
X1049900Y1506220D03*
D13*
X1039622Y1451610D03*
X1039622Y1464310D03*
X1039622Y1477010D03*
X1039622Y1489710D03*
X987298Y1489710D03*
X987298Y1477010D03*
X987298Y1464310D03*
X987298Y1451610D03*
D14*
X927100Y1534160D03*
X927100Y1508760D03*
X927100Y1483360D03*
X927100Y1457960D03*
X927100Y1432560D03*
X927100Y1407160D03*
D10*
X982980Y1371600D03*
D15*
X1013460Y1505340D03*
X1013460Y1522340D03*
X1066800Y1446140D03*
X1066800Y1429140D03*
X1066800Y1495180D03*
X1066800Y1512180D03*
X1066800Y1479160D03*
X1066800Y1462160D03*
D16*
X1059180Y1402080D03*
X1059180Y1539240D03*
X1193800Y1391920D03*
X1193800Y1549400D03*
D11*
X-26238Y1568450D03*
X1240358Y1568450D03*
D17*
X-35293Y63500D02*
X-35290Y63722D01*
X-35282Y63944D01*
X-35268Y64166D01*
X-35249Y64388D01*
X-35225Y64608D01*
X-35195Y64829D01*
X-35160Y65048D01*
X-35119Y65267D01*
X-35073Y65484D01*
X-35022Y65700D01*
X-34965Y65915D01*
X-34903Y66129D01*
X-34836Y66340D01*
X-34764Y66551D01*
X-34686Y66759D01*
X-34604Y66965D01*
X-34516Y67169D01*
X-34424Y67372D01*
X-34326Y67571D01*
X-34224Y67768D01*
X-34117Y67963D01*
X-34005Y68155D01*
X-33888Y68344D01*
X-33767Y68531D01*
X-33641Y68714D01*
X-33511Y68894D01*
X-33376Y69071D01*
X-33238Y69244D01*
X-33095Y69414D01*
X-32947Y69581D01*
X-32796Y69744D01*
X-32641Y69903D01*
X-32482Y70058D01*
X-32319Y70209D01*
X-32152Y70357D01*
X-31982Y70500D01*
X-31809Y70638D01*
X-31632Y70773D01*
X-31452Y70903D01*
X-31269Y71029D01*
X-31082Y71150D01*
X-30893Y71267D01*
X-30701Y71379D01*
X-30506Y71486D01*
X-30309Y71588D01*
X-30110Y71686D01*
X-29907Y71778D01*
X-29703Y71866D01*
X-29497Y71948D01*
X-29289Y72026D01*
X-29078Y72098D01*
X-28867Y72165D01*
X-28653Y72227D01*
X-28438Y72284D01*
X-28222Y72335D01*
X-28005Y72381D01*
X-27786Y72422D01*
X-27567Y72457D01*
X-27346Y72487D01*
X-27126Y72511D01*
X-26904Y72530D01*
X-26682Y72544D01*
X-26460Y72552D01*
X-26238Y72555D01*
X-26016Y72552D01*
X-25794Y72544D01*
X-25572Y72530D01*
X-25350Y72511D01*
X-25130Y72487D01*
X-24909Y72457D01*
X-24690Y72422D01*
X-24471Y72381D01*
X-24254Y72335D01*
X-24038Y72284D01*
X-23823Y72227D01*
X-23609Y72165D01*
X-23398Y72098D01*
X-23187Y72026D01*
X-22979Y71948D01*
X-22773Y71866D01*
X-22569Y71778D01*
X-22366Y71686D01*
X-22167Y71588D01*
X-21970Y71486D01*
X-21775Y71379D01*
X-21583Y71267D01*
X-21394Y71150D01*
X-21207Y71029D01*
X-21024Y70903D01*
X-20844Y70773D01*
X-20667Y70638D01*
X-20494Y70500D01*
X-20324Y70357D01*
X-20157Y70209D01*
X-19994Y70058D01*
X-19835Y69903D01*
X-19680Y69744D01*
X-19529Y69581D01*
X-19381Y69414D01*
X-19238Y69244D01*
X-19100Y69071D01*
X-18965Y68894D01*
X-18835Y68714D01*
X-18709Y68531D01*
X-18588Y68344D01*
X-18471Y68155D01*
X-18359Y67963D01*
X-18252Y67768D01*
X-18150Y67571D01*
X-18052Y67372D01*
X-17960Y67169D01*
X-17872Y66965D01*
X-17790Y66759D01*
X-17712Y66551D01*
X-17640Y66340D01*
X-17573Y66129D01*
X-17511Y65915D01*
X-17454Y65700D01*
X-17403Y65484D01*
X-17357Y65267D01*
X-17316Y65048D01*
X-17281Y64829D01*
X-17251Y64608D01*
X-17227Y64388D01*
X-17208Y64166D01*
X-17194Y63944D01*
X-17186Y63722D01*
X-17183Y63500D01*
X-17186Y63278D01*
X-17194Y63056D01*
X-17208Y62834D01*
X-17227Y62612D01*
X-17251Y62392D01*
X-17281Y62171D01*
X-17316Y61952D01*
X-17357Y61733D01*
X-17403Y61516D01*
X-17454Y61300D01*
X-17511Y61085D01*
X-17573Y60871D01*
X-17640Y60660D01*
X-17712Y60449D01*
X-17790Y60241D01*
X-17872Y60035D01*
X-17960Y59831D01*
X-18052Y59628D01*
X-18150Y59429D01*
X-18252Y59232D01*
X-18359Y59037D01*
X-18471Y58845D01*
X-18588Y58656D01*
X-18709Y58469D01*
X-18835Y58286D01*
X-18965Y58106D01*
X-19100Y57929D01*
X-19238Y57756D01*
X-19381Y57586D01*
X-19529Y57419D01*
X-19680Y57256D01*
X-19835Y57097D01*
X-19994Y56942D01*
X-20157Y56791D01*
X-20324Y56643D01*
X-20494Y56500D01*
X-20667Y56362D01*
X-20844Y56227D01*
X-21024Y56097D01*
X-21207Y55971D01*
X-21394Y55850D01*
X-21583Y55733D01*
X-21775Y55621D01*
X-21970Y55514D01*
X-22167Y55412D01*
X-22366Y55314D01*
X-22569Y55222D01*
X-22773Y55134D01*
X-22979Y55052D01*
X-23187Y54974D01*
X-23398Y54902D01*
X-23609Y54835D01*
X-23823Y54773D01*
X-24038Y54716D01*
X-24254Y54665D01*
X-24471Y54619D01*
X-24690Y54578D01*
X-24909Y54543D01*
X-25130Y54513D01*
X-25350Y54489D01*
X-25572Y54470D01*
X-25794Y54456D01*
X-26016Y54448D01*
X-26238Y54445D01*
X-26460Y54448D01*
X-26682Y54456D01*
X-26904Y54470D01*
X-27126Y54489D01*
X-27346Y54513D01*
X-27567Y54543D01*
X-27786Y54578D01*
X-28005Y54619D01*
X-28222Y54665D01*
X-28438Y54716D01*
X-28653Y54773D01*
X-28867Y54835D01*
X-29078Y54902D01*
X-29289Y54974D01*
X-29497Y55052D01*
X-29703Y55134D01*
X-29907Y55222D01*
X-30110Y55314D01*
X-30309Y55412D01*
X-30506Y55514D01*
X-30701Y55621D01*
X-30893Y55733D01*
X-31082Y55850D01*
X-31269Y55971D01*
X-31452Y56097D01*
X-31632Y56227D01*
X-31809Y56362D01*
X-31982Y56500D01*
X-32152Y56643D01*
X-32319Y56791D01*
X-32482Y56942D01*
X-32641Y57097D01*
X-32796Y57256D01*
X-32947Y57419D01*
X-33095Y57586D01*
X-33238Y57756D01*
X-33376Y57929D01*
X-33511Y58106D01*
X-33641Y58286D01*
X-33767Y58469D01*
X-33888Y58656D01*
X-34005Y58845D01*
X-34117Y59037D01*
X-34224Y59232D01*
X-34326Y59429D01*
X-34424Y59628D01*
X-34516Y59831D01*
X-34604Y60035D01*
X-34686Y60241D01*
X-34764Y60449D01*
X-34836Y60660D01*
X-34903Y60871D01*
X-34965Y61085D01*
X-35022Y61300D01*
X-35073Y61516D01*
X-35119Y61733D01*
X-35160Y61952D01*
X-35195Y62171D01*
X-35225Y62392D01*
X-35249Y62612D01*
X-35268Y62834D01*
X-35282Y63056D01*
X-35290Y63278D01*
X-35293Y63500D01*
D18*
X-26238Y63500D03*
M02*
