M48
;GenerationSoftware,Autodesk,EAGLE,9.6.2*%
;CreationDate,2021-11-15T22:16:40Z*%
FMAT,2
ICI,OFF
METRIC,TZ,000.000
T5C0.381
T4C0.508
T3C1.016
T2C1.778
T1C3.302
%
G90
M71
T1
X6858Y19812
X6858Y0
X37338Y19812
X37338Y0
X67818Y19812
X67818Y0
X98298Y19812
X98298Y0
X6858Y42672
X6858Y22860
X37338Y42672
X37338Y22860
X67818Y42672
X67818Y22860
X98298Y42672
X98298Y22860
X6858Y65532
X6858Y45720
X37338Y65532
X37338Y45720
X67818Y65532
X67818Y45720
X98298Y65532
X98298Y45720
X6858Y88392
X6858Y68580
X37338Y88392
X37338Y68580
X67818Y68580
X37338Y156972
X98298Y137160
X98298Y156972
X67818Y137160
X67818Y156972
X37338Y137160
X67818Y88392
X6858Y137160
X6858Y156972
X98298Y114300
X98298Y134112
X67818Y114300
X67818Y134112
X37338Y114300
X37338Y134112
X6858Y114300
X6858Y134112
X98298Y91440
X98298Y111252
X67818Y91440
X67818Y111252
X37338Y91440
X37338Y111252
X6858Y91440
X6858Y111252
X98298Y68580
X98298Y88392
T2
X119380Y154940
X119380Y139192
X105918Y153924
X105918Y140208
X88900Y154940
X88900Y139192
X75438Y153924
X75438Y140208
X58420Y154940
X58420Y139192
X44958Y153924
X44958Y140208
X27940Y154940
X27940Y139192
X14478Y153924
X14478Y140208
X119380Y132080
X119380Y116332
X105918Y131064
X105918Y117348
X88900Y132080
X88900Y116332
X75438Y131064
X75438Y117348
X58420Y132080
X58420Y116332
X44958Y131064
X44958Y117348
X27940Y132080
X27940Y116332
X14478Y131064
X14478Y117348
X119380Y109220
X119380Y93472
X105918Y108204
X88900Y109220
X88900Y93472
X75438Y108204
X75438Y94488
X58420Y109220
X58420Y93472
X44958Y108204
X44958Y94488
X27940Y109220
X27940Y93472
X14478Y108204
X14478Y94488
X119380Y86360
X119380Y70612
X105918Y85344
X105918Y71628
X88900Y86360
X88900Y70612
X75438Y85344
X75438Y71628
X105918Y39624
X105918Y25908
X88900Y40640
X88900Y24892
X75438Y39624
X75438Y25908
X58420Y40640
X58420Y24892
X44958Y39624
X44958Y25908
X27940Y40640
X27940Y24892
X14478Y39624
X14478Y25908
X58420Y70612
X119380Y2032
X105918Y16764
X105918Y3048
X88900Y17780
X88900Y2032
X75438Y16764
X75438Y3048
X58420Y17780
X58420Y2032
X44958Y16764
X44958Y3048
X27940Y17780
X27940Y2032
X14478Y16764
X14478Y3048
X44958Y85344
X44958Y71628
X27940Y86360
X27940Y70612
X14478Y85344
X105918Y94488
X14478Y71628
X119380Y63500
X119380Y47752
X105918Y62484
X105918Y48768
X88900Y63500
X88900Y47752
X75438Y62484
X75438Y48768
X58420Y63500
X58420Y47752
X44958Y62484
X44958Y48768
X27940Y63500
X58420Y86360
X27940Y47752
X14478Y62484
X14478Y48768
X119380Y40640
X119380Y24892
X119380Y17780
T3
X92710Y125476
X92710Y122936
X92710Y120396
X92710Y117856
X1270Y153416
X1270Y150876
X1270Y148336
X1270Y145796
X1270Y143256
X1270Y140716
X31750Y153416
X31750Y150876
X31750Y148336
X31750Y145796
X31750Y143256
X31750Y140716
X62230Y153416
X62230Y150876
X62230Y148336
X62230Y145796
X62230Y143256
X62230Y140716
X92710Y153416
X92710Y150876
X92710Y148336
X92710Y145796
X92710Y143256
X92710Y140716
X1270Y120396
X1270Y16256
X1270Y13716
X1270Y11176
X1270Y8636
X1270Y6096
X1270Y3556
X31750Y16256
X31750Y13716
X31750Y11176
X31750Y8636
X31750Y6096
X31750Y3556
X62230Y16256
X62230Y13716
X62230Y11176
X62230Y8636
X62230Y6096
X62230Y3556
X92710Y16256
X92710Y13716
X92710Y11176
X92710Y8636
X92710Y6096
X92710Y3556
X1270Y39116
X1270Y36576
X1270Y34036
X1270Y31496
X1270Y28956
X1270Y26416
X31750Y39116
X31750Y36576
X31750Y34036
X31750Y28956
X31750Y26416
X62230Y39116
X62230Y36576
X62230Y34036
X62230Y31496
X62230Y28956
X62230Y26416
X92710Y39116
X92710Y36576
X92710Y34036
X92710Y31496
X92710Y28956
X92710Y26416
X1270Y61976
X1270Y59436
X1270Y56896
X1270Y54356
X1270Y51816
X1270Y49276
X31750Y61976
X31750Y59436
X31750Y56896
X31750Y54356
X31750Y51816
X31750Y49276
X62230Y61976
X62230Y59436
X62230Y56896
X31750Y31496
X62230Y54356
X62230Y51816
X62230Y49276
X92710Y61976
X92710Y59436
X92710Y56896
X92710Y54356
X92710Y51816
X92710Y49276
X1270Y84836
X1270Y82296
X1270Y79756
X1270Y77216
X1270Y74676
X1270Y72136
X31750Y84836
X31750Y82296
X31750Y79756
X31750Y77216
X31750Y74676
X31750Y72136
X62230Y84836
X62230Y82296
X62230Y79756
X62230Y77216
X62230Y74676
X62230Y72136
X92710Y84836
X92710Y82296
X92710Y79756
X92710Y77216
X92710Y74676
X92710Y72136
X1270Y107696
X1270Y105156
X1270Y102616
X1270Y100076
X1270Y97536
X1270Y94996
X31750Y107696
X31750Y105156
X31750Y102616
X31750Y100076
X31750Y97536
X31750Y94996
X62230Y107696
X62230Y105156
X62230Y102616
X62230Y100076
X62230Y97536
X62230Y94996
X92710Y107696
X92710Y105156
X92710Y102616
X92710Y100076
X92710Y97536
X92710Y94996
X1270Y130556
X1270Y128016
X1270Y125476
X1270Y122936
X1270Y117856
X31750Y130556
X31750Y128016
X31750Y125476
X31750Y122936
X31750Y120396
X31750Y117856
X62230Y130556
X62230Y128016
X62230Y125476
X62230Y122936
X62230Y120396
X62230Y117856
X92710Y130556
X92710Y128016
T4
X7874Y6604
X5080Y10287
X7366Y13462
X21590Y18796
X1016Y18796
X1016Y1016
X21590Y1016
X21590Y15494
X21590Y9906
X21590Y4318
X12954Y5715
X12954Y14859
X38354Y6604
X35560Y10287
X37846Y13462
X52070Y18796
X31496Y18796
X31496Y1016
X52070Y1016
X52070Y15494
X52070Y9906
X52070Y4318
X43434Y5715
X43434Y14859
X68834Y6604
X66040Y10287
X68326Y13462
X82550Y18796
X61976Y18796
X61976Y1016
X82550Y1016
X82550Y15494
X82550Y9906
X82550Y4318
X73914Y5715
X73914Y14859
X99314Y6604
X96520Y10287
X98806Y13462
X113030Y18796
X92456Y18796
X92456Y1016
X113030Y1016
X113030Y15494
X113030Y9906
X113030Y4318
X104394Y5715
X104394Y14859
X7874Y29464
X5080Y33147
X7366Y36322
X21590Y41656
X1016Y41656
X1016Y23876
X21590Y23876
X21590Y38354
X21590Y32766
X21590Y27178
X12954Y28575
X12954Y37719
X38354Y29464
X35560Y33147
X37846Y36322
X52070Y41656
X31496Y41656
X31496Y23876
X52070Y23876
X52070Y38354
X52070Y32766
X52070Y27178
X43434Y28575
X43434Y37719
X68834Y29464
X66040Y33147
X68326Y36322
X82550Y41656
X61976Y41656
X61976Y23876
X82550Y23876
X82550Y38354
X82550Y32766
X82550Y27178
X73914Y28575
X73914Y37719
X99314Y29464
X96520Y33147
X98806Y36322
X113030Y41656
X92456Y41656
X92456Y23876
X113030Y23876
X113030Y32766
X113030Y27178
X104394Y28575
X104394Y37719
X7874Y52324
X5080Y56007
X7366Y59182
X21590Y64516
X1016Y64516
X1016Y46736
X21590Y46736
X21590Y61214
X21590Y55626
X21590Y50038
X12954Y51435
X12954Y60579
X38354Y52324
X35560Y56007
X37846Y59182
X52070Y64516
X31496Y64516
X31496Y46736
X52070Y46736
X52070Y61214
X52070Y55626
X52070Y50038
X43434Y51435
X43434Y60579
X68834Y52324
X66040Y56007
X68326Y59182
X82550Y64516
X61976Y64516
X61976Y46736
X82550Y46736
X82550Y61214
X82550Y55626
X82550Y50038
X73914Y51435
X73914Y60579
X99314Y52324
X96520Y56007
X98806Y59182
X113030Y64516
X92456Y64516
X92456Y46736
X113030Y46736
X113030Y61214
X113030Y55626
X113030Y50038
X104394Y51435
X104394Y60579
X7874Y75184
X5080Y78867
X7366Y82042
X21590Y87376
X1016Y87376
X1016Y69596
X21590Y69596
X21590Y84074
X21590Y78486
X21590Y72898
X12954Y74295
X12954Y83439
X38354Y75184
X35560Y78867
X37846Y82042
X52070Y87376
X31496Y87376
X31496Y69596
X52070Y69596
X52070Y84074
X52070Y78486
X52070Y72898
X43434Y74295
X43434Y83439
X68834Y75184
X66040Y78867
X68326Y82042
X82550Y87376
X61976Y87376
X61976Y69596
X82550Y69596
X82550Y84074
X82550Y78486
X82550Y72898
X73914Y74295
X73914Y83439
X99314Y75184
X96520Y78867
X98806Y82042
X113030Y87376
X92456Y87376
X92456Y69596
X113030Y69596
X113030Y84074
X113030Y78486
X113030Y72898
X104394Y74295
X104394Y83439
X7874Y98044
X5080Y101727
X7366Y104902
X21590Y110236
X43434Y120015
X52070Y118618
X52070Y124206
X21590Y138176
X1016Y138176
X43434Y152019
X43434Y142875
X52070Y129794
X52070Y115316
X31496Y115316
X31496Y133096
X52070Y141478
X104394Y152019
X104394Y142875
X113030Y141478
X1016Y155956
X21590Y155956
X52070Y133096
X37846Y127762
X35560Y124587
X38354Y120904
X7366Y150622
X5080Y147447
X113030Y147066
X113030Y152654
X12954Y129159
X12954Y120015
X21590Y118618
X21590Y124206
X113030Y138176
X82550Y118618
X52070Y147066
X52070Y152654
X7874Y143764
X104394Y129159
X21590Y129794
X21590Y115316
X1016Y115316
X1016Y133096
X104394Y120015
X113030Y118618
X52070Y138176
X31496Y138176
X21590Y133096
X7366Y127762
X5080Y124587
X7874Y120904
X92456Y138176
X92456Y155956
X113030Y124206
X113030Y129794
X104394Y106299
X104394Y97155
X113030Y95758
X113030Y101346
X113030Y115316
X92456Y115316
X113030Y155956
X98806Y150622
X113030Y106934
X113030Y92456
X92456Y92456
X92456Y110236
X96520Y147447
X99314Y143764
X31496Y155956
X52070Y155956
X92456Y133096
X113030Y133096
X113030Y110236
X98806Y104902
X96520Y101727
X99314Y98044
X98806Y127762
X96520Y124587
X113030Y38354
X37846Y150622
X73914Y106299
X73914Y97155
X82550Y95758
X82550Y101346
X35560Y147447
X73914Y152019
X73914Y142875
X99314Y120904
X82550Y106934
X82550Y92456
X61976Y92456
X61976Y110236
X73914Y129159
X73914Y120015
X82550Y124206
X82550Y141478
X82550Y110236
X68326Y104902
X66040Y101727
X68834Y98044
X82550Y147066
X82550Y152654
X82550Y138176
X38354Y143764
X12954Y152019
X82550Y129794
X43434Y106299
X43434Y97155
X52070Y95758
X52070Y101346
X82550Y115316
X61976Y115316
X61976Y133096
X12954Y142875
X52070Y106934
X52070Y92456
X31496Y92456
X31496Y110236
X21590Y141478
X61976Y138176
X61976Y155956
X82550Y133096
X52070Y110236
X37846Y104902
X35560Y101727
X38354Y98044
X68326Y127762
X66040Y124587
X68834Y120904
X82550Y155956
X12954Y106299
X12954Y97155
X21590Y95758
X21590Y101346
X68326Y150622
X66040Y147447
X68834Y143764
X21590Y147066
X21590Y152654
X43434Y129159
X21590Y106934
X21590Y92456
X1016Y92456
X1016Y110236
T5
X77216Y83820
X77216Y73152
X107696Y38100
X107696Y27432
X46736Y106680
X46736Y96012
X107696Y129540
X107696Y118872
X46736Y38100
X46736Y27432
X77216Y38100
X46736Y60960
X46736Y50292
X77216Y27432
X16256Y129540
X16256Y118872
X16256Y83820
X46736Y15240
X16256Y152400
X16256Y141732
X46736Y4572
X77216Y15240
X77216Y4572
X16256Y73152
X16256Y38100
X16256Y27432
X107696Y15240
X107696Y4572
X77216Y106680
X77216Y96012
X46736Y152400
X46736Y141732
X46736Y129540
X46736Y118872
X16256Y106680
X77216Y60960
X77216Y50292
X16256Y96012
X16256Y15240
X16256Y60960
X16256Y50292
X16256Y4572
X77216Y152400
X77216Y141732
X107696Y60960
X107696Y50292
X46736Y83820
X46736Y73152
X77216Y129540
X77216Y118872
X107696Y83820
X107696Y73152
X107696Y106680
X107696Y96012
X107696Y152400
X107696Y141732
M30